<?xml version="1.0" standalone="no"?>
<!DOCTYPE svg PUBLIC "-//W3C//DTD SVG 20010904//EN"
 "http://www.w3.org/TR/2001/REC-SVG-20010904/DTD/svg10.dtd">
<svg version="1.0" xmlns="http://www.w3.org/2000/svg"
 width="150.000000pt" height="150.000000pt" viewBox="0 0 150.000000 150.000000"
 preserveAspectRatio="xMidYMid meet">
<metadata>
Created by potrace 1.14, written by Peter Selinger 2001-2017
</metadata>
<g transform="translate(0.000000,150.000000) scale(0.100000,-0.100000)"
fill="#000000" stroke="none">
<path d="M0 1330 l0 -169 83 -4 82 -3 -82 -2 c-75 -2 -83 -4 -83 -22 0 -16 8
-20 58 -23 l57 -3 -57 -2 -58 -2 0 -550 0 -550 225 0 225 0 0 96 c0 81 -2 95
-15 90 -9 -3 -15 0 -15 9 0 24 29 17 34 -7 3 -13 7 -59 10 -103 3 -44 5 -81 5
-82 1 -2 7 -3 15 -3 8 0 17 12 19 28 l4 27 2 -27 1 -27 495 -1 495 0 0 750 0
750 -750 0 -750 0 0 -170z m700 136 c0 -2 -9 -6 -20 -9 -11 -3 -20 -1 -20 4 0
5 9 9 20 9 11 0 20 -2 20 -4z m83 -3 c-13 -2 -33 -2 -45 0 -13 2 -3 4 22 4 25
0 35 -2 23 -4z m97 -33 c0 -5 -4 -10 -10 -10 -5 0 -10 5 -10 10 0 6 5 10 10
10 6 0 10 -4 10 -10z m40 -28 c0 -15 -2 -15 -10 -2 -13 20 -13 33 0 25 6 -3
10 -14 10 -23z m-410 -46 c0 -3 -4 -8 -10 -11 -5 -3 -10 -1 -10 4 0 6 5 11 10
11 6 0 10 -2 10 -4z m498 -45 c9 1 49 0 87 -2 l70 -3 -70 -5 c-38 -3 -82 -4
-96 -3 -22 3 -25 7 -20 35 l6 32 3 -28 c2 -19 9 -27 20 -26z m-442 -1 c35 0
64 -3 64 -8 0 -4 -26 -7 -57 -7 l-58 0 -5 -90 -6 -90 -4 90 c-4 73 -8 90 -21
93 -14 3 -18 -12 -26 -90 -8 -74 -10 -82 -12 -40 l-1 52 -47 1 c-33 2 -39 3
-18 6 17 2 36 12 43 21 11 15 12 14 12 -1 0 -9 4 -17 8 -17 4 0 8 17 8 38 0
31 3 38 22 40 12 2 22 9 23 15 0 9 2 8 6 0 3 -9 27 -13 69 -13z m654 0 c0 -5
-4 -10 -10 -10 -5 0 -10 5 -10 10 0 6 5 10 10 10 6 0 10 -4 10 -10z m40 0 c0
-5 -4 -10 -10 -10 -5 0 -10 5 -10 10 0 6 5 10 10 10 6 0 10 -4 10 -10z m98 -5
c3 -3 -13 -5 -36 -5 -22 0 -43 3 -46 8 -5 8 73 6 82 -3z m-1055 -82 c-23 -2
-64 -2 -90 0 -26 2 -8 3 42 3 50 0 71 -1 48 -3z m797 -3 c0 -5 -2 -10 -4 -10
-3 0 -8 5 -11 10 -3 6 -1 10 4 10 6 0 11 -4 11 -10z m-703 -42 c-3 -8 -6 -5
-6 6 -1 11 2 17 5 13 3 -3 4 -12 1 -19z m-42 -58 c1 -11 -4 -20 -10 -20 -8 0
-10 10 -7 25 5 29 15 25 17 -5z m45 16 c0 -3 -4 -8 -10 -11 -5 -3 -10 -1 -10
4 0 6 5 11 10 11 6 0 10 -2 10 -4z m761 -28 c17 -3 16 -4 -6 -15 -24 -11 -25
-10 -24 20 1 18 3 24 6 15 2 -9 13 -18 24 -20z m-771 -8 c0 -5 -2 -10 -4 -10
-3 0 -8 5 -11 10 -3 6 -1 10 4 10 6 0 11 -4 11 -10z m680 -40 c0 -5 -2 -10 -4
-10 -3 0 -8 5 -11 10 -3 6 -1 10 4 10 6 0 11 -4 11 -10z m27 -12 c-3 -8 -6 -5
-6 6 -1 11 2 17 5 13 3 -3 4 -12 1 -19z m43 -53 c-6 -30 -8 -33 -9 -13 -1 25
8 62 14 56 2 -2 -1 -21 -5 -43z m-745 -5 c-5 -8 -11 -8 -17 -2 -6 6 -7 16 -3
22 5 8 11 8 17 2 6 -6 7 -16 3 -22z m52 -2 c-3 -7 -5 -2 -5 12 0 14 2 19 5 13
2 -7 2 -19 0 -25z m63 10 c0 -18 -2 -20 -9 -8 -6 8 -7 18 -5 22 9 14 14 9 14
-14z m115 12 c3 -5 1 -10 -4 -10 -6 0 -11 5 -11 10 0 6 2 10 4 10 3 0 8 -4 11
-10z m190 -11 c6 -2 -26 -5 -70 -8 -81 -6 -105 -4 -105 8 0 5 152 6 175 0z
m305 3 c0 -13 -12 -22 -22 -16 -10 6 -1 24 13 24 5 0 9 -4 9 -8z m-725 -52 c3
-5 1 -10 -4 -10 -6 0 -11 5 -11 10 0 6 2 10 4 10 3 0 8 -4 11 -10z m404 -38
l-1 -37 -9 33 c-8 27 -14 32 -42 33 l-32 2 35 6 c46 9 50 6 49 -37z m-349 -6
c0 -9 -8 -12 -24 -9 -13 3 -27 0 -30 -6 -5 -7 2 -11 15 -11 35 0 18 -8 -29
-14 -23 -3 -42 -1 -42 5 0 5 9 9 19 9 10 0 21 6 24 14 3 8 18 16 34 19 15 2
29 5 31 6 1 0 2 -5 2 -13z m63 1 c3 -8 1 -20 -4 -28 -6 -10 -9 -7 -9 14 0 29
5 35 13 14z m-158 -7 c3 -5 1 -10 -4 -10 -6 0 -11 5 -11 10 0 6 2 10 4 10 3 0
8 -4 11 -10z m653 3 c-10 -2 -26 -2 -35 0 -10 3 -2 5 17 5 19 0 27 -2 18 -5z
m155 0 c-7 -2 -19 -2 -25 0 -7 3 -2 5 12 5 14 0 19 -2 13 -5z m-526 -9 c-3 -3
-12 -4 -19 -1 -8 3 -5 6 6 6 11 1 17 -2 13 -5z m103 -89 l0 -95 85 0 c47 0 85
-4 85 -9 0 -5 3 -16 6 -25 3 -9 1 -16 -5 -16 -6 0 -11 9 -11 19 0 18 -9 20
-142 20 -78 1 -144 4 -146 6 -3 3 23 5 57 5 l62 0 -3 95 c-2 52 0 95 5 95 4 0
7 -43 7 -95z m-280 68 c0 -5 -5 -15 -10 -23 -8 -12 -10 -11 -10 8 0 12 5 22
10 22 6 0 10 -3 10 -7z m190 -2 c0 -4 -12 -7 -27 -5 -15 1 -31 -3 -35 -9 -5
-8 -8 -6 -8 6 0 13 8 17 35 17 19 0 35 -4 35 -9z m258 2 c-15 -2 -42 -2 -60 0
-18 2 -6 4 27 4 33 0 48 -2 33 -4z m239 -25 c-3 -8 -6 -5 -6 6 -1 11 2 17 5
13 3 -3 4 -12 1 -19z m-791 -27 c-4 -5 -2 -11 3 -13 5 -1 3 -8 -4 -15 -10 -9
-14 -7 -18 13 -3 16 0 24 10 24 8 0 12 -4 9 -9z m209 3 c-46 -7 -125 -8 -125
-1 0 4 33 6 73 6 39 -1 63 -3 52 -5z m592 -16 c-3 -8 -6 -5 -6 6 -1 11 2 17 5
13 3 -3 4 -12 1 -19z m17 -108 c-11 -4 -36 -5 -55 0 -31 7 -29 8 21 8 39 1 49
-2 34 -8z m-806 -41 c-20 -13 -28 -11 -22 5 3 8 12 12 21 9 12 -5 12 -7 1 -14z
m342 11 c0 -5 -5 -10 -11 -10 -5 0 -7 5 -4 10 3 6 8 10 11 10 2 0 4 -4 4 -10z
m-60 -10 c0 -5 -8 -10 -17 -10 -15 0 -16 2 -3 10 19 12 20 12 20 0z m-280 -24
c0 -2 -7 -6 -15 -10 -8 -3 -15 -1 -15 4 0 6 7 10 15 10 8 0 15 -2 15 -4z m300
-7 c0 -5 -4 -7 -10 -4 -6 4 -10 -5 -10 -19 0 -25 -2 -26 -52 -24 l-53 2 48 3
c42 4 47 7 47 29 0 15 6 24 15 24 8 0 15 -5 15 -11z m568 -21 l97 -3 -103 -5
-102 -5 1 25 c1 16 3 19 6 8 4 -15 20 -18 101 -20z m-750 -5 c-15 -2 -42 -2
-60 0 -18 2 -6 4 27 4 33 0 48 -2 33 -4z m65 0 c-7 -2 -19 -2 -25 0 -7 3 -2 5
12 5 14 0 19 -2 13 -5z m375 0 c-42 -2 -114 -2 -160 0 -46 1 -11 3 77 3 88 0
125 -2 83 -3z m145 0 c-13 -2 -33 -2 -45 0 -13 2 -3 4 22 4 25 0 35 -2 23 -4z
m-683 -19 c0 -2 -9 -4 -20 -4 -11 0 -20 4 -20 9 0 5 9 7 20 4 11 -3 20 -7 20
-9z m598 -1 c-15 -2 -42 -2 -60 0 -18 2 -6 4 27 4 33 0 48 -2 33 -4z m-590
-117 c1 -42 -2 -76 -7 -76 -9 0 -19 97 -13 138 7 46 18 11 20 -62z m114 44
c-2 -16 -8 -30 -13 -30 -10 0 -12 31 -3 54 10 26 21 9 16 -24z m295 24 c-3 -3
-12 -4 -19 -1 -8 3 -5 6 6 6 11 1 17 -2 13 -5z m-7 -18 c0 -8 -71 -12 -76 -4
-3 4 13 8 35 8 23 0 41 -2 41 -4z m-170 -21 c0 -8 -4 -15 -10 -15 -5 0 -10 7
-10 15 0 8 5 15 10 15 6 0 10 -7 10 -15z m797 -62 c-3 -10 -5 -2 -5 17 0 19 2
27 5 18 2 -10 2 -26 0 -35z m-719 30 c-21 -2 -57 -2 -80 0 -24 2 -7 4 37 4 44
0 63 -2 43 -4z m129 1 c-3 -3 -12 -4 -19 -1 -8 3 -5 6 6 6 11 1 17 -2 13 -5z
m11 -71 c-32 -2 -86 -2 -120 0 -35 2 -9 3 57 3 66 0 94 -1 63 -3z m579 -35
c-3 -8 -6 -5 -6 6 -1 11 2 17 5 13 3 -3 4 -12 1 -19z m-1003 -4 c3 -8 2 -12
-4 -9 -6 3 -10 10 -10 16 0 14 7 11 14 -7z m329 -77 c8 -6 7 -7 -3 -4 -10 2
-15 18 -16 48 -1 44 -1 44 3 4 3 -22 10 -44 16 -48z m-293 28 c0 -14 5 -25 11
-25 8 0 7 -5 -2 -16 -12 -14 -14 -13 -21 7 -5 12 -7 28 -4 35 3 7 -3 15 -12
17 -12 3 -11 5 6 6 17 1 22 -4 22 -24z m165 -5 c3 -5 1 -10 -4 -10 -6 0 -11 5
-11 10 0 6 2 10 4 10 3 0 8 -4 11 -10z m-117 -79 c-2 -44 -18 -46 -18 -2 0 25
7 41 17 41 2 0 3 -18 1 -39z m-211 -17 c-3 -3 -12 -4 -19 -1 -8 3 -5 6 6 6 11
1 17 -2 13 -5z m266 -21 c-7 -2 -21 -2 -30 0 -10 3 -4 5 12 5 17 0 24 -2 18
-5z m30 -30 c-7 -2 -19 -2 -25 0 -7 3 -2 5 12 5 14 0 19 -2 13 -5z m75 -38
c-11 -11 -47 -13 -75 -5 -24 7 -20 8 26 9 30 1 52 -1 49 -4z m419 -1 c-3 -3
-12 -4 -19 -1 -8 3 -5 6 6 6 11 1 17 -2 13 -5z m-580 -46 c-3 -8 -6 -5 -6 6
-1 11 2 17 5 13 3 -3 4 -12 1 -19z m249 -25 c-7 -7 -87 -5 -95 3 -2 2 20 4 49
4 29 0 50 -3 46 -7z m674 -9 c0 -12 -3 -14 -13 -6 -7 6 -46 13 -87 15 l-75 3
88 2 c74 2 87 0 87 -14z"/>
</g>
</svg>
